<svg  viewBox="0 0 30 30" stroke="currentColor" stroke-width="1.1" ><path fill-rule="evenodd" clip-rule="evenodd" d="M15.822 6.019c-1.027-.486-2.222.014-2.66 1.086l-7.28 17.81-.03.093a.667.667 0 001.265.41l2.964-7.251h5.672l.099-.008a.667.667 0 00-.099-1.326h-5.127l3.77-9.223.048-.098c.176-.307.516-.426.808-.288.152.073.28.209.351.386l2.388 5.841a.667.667 0 101.235-.504l-2.388-5.842a2.054 2.054 0 00-1.016-1.086zm6.272 9.773a1.984 1.984 0 00-.948-1.07c-.98-.492-2.116.012-2.524 1.07l-1.77 4.598a.629.629 0 00-.108.28l-1.645 4.269a.633.633 0 001.182.455l1.545-4.01h5.065l1.542 4.003a.633.633 0 001.181-.456l-3.52-9.139zm.309 4.325h-4.09l1.491-3.87c.149-.385.49-.536.774-.393.142.071.264.21.334.394l1.49 3.87z" /></svg>